<?xml version="1.0" standalone="no"?>
<!DOCTYPE svg PUBLIC "-//W3C//DTD SVG 20010904//EN"
 "http://www.w3.org/TR/2001/REC-SVG-20010904/DTD/svg10.dtd">
<svg version="1.0" xmlns="http://www.w3.org/2000/svg"
 width="1000.000000pt" height="1000.000000pt" viewBox="0 0 1000.000000 1000.000000"
 preserveAspectRatio="xMidYMid meet">
<metadata>
Created by potrace 1.14, written by Peter Selinger 2001-2017
</metadata>
<g transform="translate(0.000000,1000.000000) scale(0.100000,-0.100000)"
fill="#000000" stroke="none">
<path d="M0 5000 l0 -5000 5000 0 5000 0 0 5000 0 5000 -5000 0 -5000 0 0
-5000z m8283 1821 l637 -639 0 -366 0 -366 -635 0 -635 0 0 635 c0 349 -3 635
-8 635 -4 0 -129 -122 -277 -270 l-270 -270 -2095 0 -2095 0 -270 270 c-148
149 -273 270 -277 270 -5 0 -8 -529 -8 -1175 0 -646 3 -1175 8 -1175 4 0 129
122 277 270 l270 270 2372 0 2371 0 636 -642 636 -643 0 -542 0 -543 -635 0
-635 0 0 278 0 277 -268 268 -267 267 -2383 0 -2382 0 0 -279 0 -279 -274
-266 -274 -266 -361 0 -361 0 0 2460 0 2460 3283 0 3283 0 637 -639z"/>
</g>
</svg>
